<svg xmlns="http://www.w3.org/2000/svg" width="1200" height="630" viewBox="0 0 1200 630">
  <defs><linearGradient id="g" x1="0" x2="1" y1="0" y2="1"><stop offset="0" stop-color="#0f172a"/><stop offset="1" stop-color="#0d9488"/></linearGradient></defs>
  <rect width="1200" height="630" rx="48" fill="url(#g)"/>
  <rect x="120" y="78" width="960" height="120" rx="24" fill="#f8fafc" opacity=".96"/>
  <text x="600" y="153" text-anchor="middle" font-family="Arial, sans-serif" font-size="54" font-weight="700" fill="#0f172a">Cafe Work Seat</text>
  <rect x="170" y="270" width="860" height="210" rx="28" fill="#fef3c7" opacity=".95"/>
  <rect x="230" y="320" width="150" height="105" rx="18" fill="#14b8a6"/>
  <rect x="430" y="320" width="150" height="105" rx="18" fill="#e2e8f0"/>
  <rect x="630" y="320" width="150" height="105" rx="18" fill="#facc15"/>
  <rect x="830" y="320" width="110" height="105" rx="18" fill="#e2e8f0"/>
  <path d="M275 292h58v28h-58z" fill="#fff" opacity=".9"/><path d="M675 292h58v28h-58z" fill="#fff" opacity=".9"/>
  <circle cx="305" cy="373" r="22" fill="#fff"/><circle cx="505" cy="373" r="22" fill="#64748b"/><circle cx="705" cy="373" r="22" fill="#fff"/><circle cx="885" cy="373" r="22" fill="#64748b"/>
  <text x="600" y="555" text-anchor="middle" font-family="Arial, sans-serif" font-size="36" font-weight="700" fill="#fff">OUTLET · QUIET · LIGHT</text>
</svg>