<svg xmlns="http://www.w3.org/2000/svg" width="1200" height="630" viewBox="0 0 1200 630" role="img" aria-label="Emergency bag checklist planner thumbnail">
  <defs><linearGradient id="g" x1="0" y1="0" x2="1" y2="1"><stop offset="0" stop-color="#0f766e"/><stop offset="1" stop-color="#f97316"/></linearGradient></defs>
  <rect width="1200" height="630" rx="48" fill="url(#g)"/>
  <circle cx="980" cy="100" r="170" fill="#ffffff" opacity="0.14"/>
  <circle cx="180" cy="540" r="210" fill="#ffffff" opacity="0.12"/>
  <rect x="140" y="130" width="360" height="360" rx="52" fill="#fff7ed" opacity="0.95"/>
  <path d="M245 210h150c32 0 58 26 58 58v170H187V268c0-32 26-58 58-58z" fill="#ea580c"/>
  <path d="M270 210v-30c0-30 24-54 54-54s54 24 54 54v30" fill="none" stroke="#fff7ed" stroke-width="24" stroke-linecap="round"/>
  <rect x="245" y="300" width="155" height="34" rx="17" fill="#fff7ed"/>
  <path d="M305 270v94M258 317h94" stroke="#0f766e" stroke-width="22" stroke-linecap="round"/>
  <text x="560" y="250" font-family="Arial, sans-serif" font-size="70" font-weight="800" fill="#ffffff">Emergency</text>
  <text x="560" y="335" font-family="Arial, sans-serif" font-size="70" font-weight="800" fill="#ffffff">Bag Kit</text>
  <text x="565" y="420" font-family="Arial, sans-serif" font-size="34" fill="#ffedd5">Family · Pets · Medicine Ready</text>
</svg>
