<svg width="1200" height="630" viewBox="0 0 1200 630" fill="none" xmlns="http://www.w3.org/2000/svg">
  <rect width="1200" height="630" rx="36" fill="#0F172A"/>
  <rect x="60" y="60" width="1080" height="510" rx="28" fill="#111827" stroke="#334155" stroke-width="2"/>
  <rect x="110" y="124" width="420" height="332" rx="24" fill="#1E293B"/>
  <rect x="150" y="170" width="310" height="38" rx="12" fill="#F8FAFC" fill-opacity="0.1"/>
  <rect x="150" y="230" width="240" height="20" rx="10" fill="#94A3B8" fill-opacity="0.35"/>
  <rect x="150" y="270" width="280" height="20" rx="10" fill="#94A3B8" fill-opacity="0.28"/>
  <rect x="150" y="310" width="220" height="20" rx="10" fill="#94A3B8" fill-opacity="0.22"/>
  <path d="M575 295H640" stroke="#38BDF8" stroke-width="18" stroke-linecap="round"/>
  <path d="M618 270L646 295L618 320" stroke="#38BDF8" stroke-width="18" stroke-linecap="round" stroke-linejoin="round"/>
  <rect x="690" y="124" width="390" height="332" rx="24" fill="#082F49"/>
  <rect x="730" y="170" width="250" height="42" rx="12" fill="#E0F2FE"/>
  <text x="748" y="197" fill="#082F49" font-family="Arial, sans-serif" font-size="24" font-weight="700">2026-04-27_file-list_01</text>
  <rect x="730" y="244" width="230" height="20" rx="10" fill="#BAE6FD" fill-opacity="0.65"/>
  <rect x="730" y="284" width="290" height="20" rx="10" fill="#BAE6FD" fill-opacity="0.58"/>
  <rect x="730" y="324" width="250" height="20" rx="10" fill="#BAE6FD" fill-opacity="0.5"/>
  <text x="110" y="516" fill="#E2E8F0" font-family="Arial, sans-serif" font-size="52" font-weight="700">Filename Sanitizer</text>
  <text x="110" y="556" fill="#94A3B8" font-family="Arial, sans-serif" font-size="24">Normalize spaces, symbols, and numbering</text>
</svg>
