<svg width="1200" height="630" viewBox="0 0 1200 630" fill="none" xmlns="http://www.w3.org/2000/svg">
  <rect width="1200" height="630" rx="36" fill="#0F172A"/>
  <rect x="44" y="44" width="1112" height="542" rx="28" fill="#111827" stroke="#334155" stroke-width="2"/>
  <rect x="88" y="92" width="340" height="446" rx="24" fill="#1E293B"/>
  <rect x="128" y="132" width="260" height="116" rx="18" fill="#020617" stroke="#475569" stroke-width="2"/>
  <text x="258" y="176" text-anchor="middle" fill="#E2E8F0" font-family="Arial, sans-serif" font-size="30" font-weight="700">Goal Savings</text>
  <text x="258" y="214" text-anchor="middle" fill="#94A3B8" font-family="Arial, sans-serif" font-size="20">When will you reach it?</text>
  <rect x="128" y="286" width="260" height="88" rx="18" fill="#0F172A" stroke="#334155"/>
  <text x="154" y="321" fill="#94A3B8" font-family="Arial, sans-serif" font-size="18">Current</text>
  <text x="154" y="354" fill="#F8FAFC" font-family="Arial, sans-serif" font-size="28" font-weight="700">2,000,000 KRW</text>
  <rect x="128" y="392" width="260" height="88" rx="18" fill="#0F172A" stroke="#334155"/>
  <text x="154" y="427" fill="#94A3B8" font-family="Arial, sans-serif" font-size="18">Monthly Save</text>
  <text x="154" y="460" fill="#F8FAFC" font-family="Arial, sans-serif" font-size="28" font-weight="700">500,000 KRW</text>
  <rect x="460" y="92" width="616" height="446" rx="24" fill="#020617" stroke="#1E293B" stroke-width="2"/>
  <text x="510" y="152" fill="#E2E8F0" font-family="Arial, sans-serif" font-size="42" font-weight="700">Savings Timeline</text>
  <text x="510" y="194" fill="#94A3B8" font-family="Arial, sans-serif" font-size="24">Estimate months, contributions, and interest</text>
  <rect x="510" y="238" width="250" height="118" rx="20" fill="#0F172A" stroke="#334155"/>
  <text x="540" y="282" fill="#94A3B8" font-family="Arial, sans-serif" font-size="20">Required Time</text>
  <text x="540" y="330" fill="#22C55E" font-family="Arial, sans-serif" font-size="42" font-weight="800">15 months</text>
  <rect x="790" y="238" width="250" height="118" rx="20" fill="#0F172A" stroke="#334155"/>
  <text x="820" y="282" fill="#94A3B8" font-family="Arial, sans-serif" font-size="20">Period</text>
  <text x="820" y="330" fill="#60A5FA" font-family="Arial, sans-serif" font-size="42" font-weight="800">1y 3m</text>
  <rect x="510" y="384" width="250" height="118" rx="20" fill="#0F172A" stroke="#334155"/>
  <text x="540" y="428" fill="#94A3B8" font-family="Arial, sans-serif" font-size="20">Contributions</text>
  <text x="540" y="476" fill="#F59E0B" font-family="Arial, sans-serif" font-size="34" font-weight="800">7,500,000 KRW</text>
  <rect x="790" y="384" width="250" height="118" rx="20" fill="#0F172A" stroke="#334155"/>
  <text x="820" y="428" fill="#94A3B8" font-family="Arial, sans-serif" font-size="20">Interest</text>
  <text x="820" y="476" fill="#F472B6" font-family="Arial, sans-serif" font-size="34" font-weight="800">about 58,000</text>
</svg>
