<svg xmlns="http://www.w3.org/2000/svg" width="1200" height="630" viewBox="0 0 1200 630" fill="none">
  <rect width="1200" height="630" rx="36" fill="#0F172A"/>
  <rect x="56" y="56" width="1088" height="518" rx="28" fill="#111827" stroke="#334155" stroke-width="2"/>
  <rect x="96" y="104" width="1008" height="72" rx="18" fill="#1E293B"/>
  <circle cx="138" cy="140" r="10" fill="#38BDF8"/>
  <circle cx="172" cy="140" r="10" fill="#34D399"/>
  <circle cx="206" cy="140" r="10" fill="#F59E0B"/>
  <rect x="248" y="120" width="544" height="40" rx="12" fill="#0F172A"/>
  <text x="272" y="147" fill="#93C5FD" font-family="Arial, Apple SD Gothic Neo, sans-serif" font-size="24" font-weight="700">https://example.com/article?utm_source=chat</text>
  <rect x="96" y="216" width="420" height="284" rx="22" fill="#0B1220" stroke="#1E293B"/>
  <rect x="556" y="216" width="548" height="284" rx="22" fill="#0B1220" stroke="#1E293B"/>
  <text x="128" y="260" fill="#E2E8F0" font-family="Arial, Apple SD Gothic Neo, sans-serif" font-size="28" font-weight="700">Input text</text>
  <text x="128" y="310" fill="#94A3B8" font-family="Arial, Apple SD Gothic Neo, sans-serif" font-size="22">Notes and chat logs can contain</text>
  <text x="128" y="344" fill="#94A3B8" font-family="Arial, Apple SD Gothic Neo, sans-serif" font-size="22">mixed URLs in messy paragraphs.</text>
  <text x="128" y="378" fill="#94A3B8" font-family="Arial, Apple SD Gothic Neo, sans-serif" font-size="22">Extract, clean, dedupe, and regroup.</text>
  <rect x="128" y="418" width="270" height="44" rx="12" fill="#1D4ED8"/>
  <text x="148" y="447" fill="#DBEAFE" font-family="Arial, Apple SD Gothic Neo, sans-serif" font-size="22" font-weight="700">Link List Cleaner</text>
  <text x="588" y="260" fill="#E2E8F0" font-family="Arial, Apple SD Gothic Neo, sans-serif" font-size="28" font-weight="700">Clean result</text>
  <rect x="588" y="292" width="484" height="42" rx="12" fill="#0F172A"/>
  <text x="608" y="320" fill="#67E8F9" font-family="Arial, Apple SD Gothic Neo, sans-serif" font-size="20">example.com/article</text>
  <rect x="588" y="348" width="484" height="42" rx="12" fill="#0F172A"/>
  <text x="608" y="376" fill="#67E8F9" font-family="Arial, Apple SD Gothic Neo, sans-serif" font-size="20">docs.site/report</text>
  <rect x="588" y="404" width="484" height="42" rx="12" fill="#0F172A"/>
  <text x="608" y="432" fill="#67E8F9" font-family="Arial, Apple SD Gothic Neo, sans-serif" font-size="20">news.example/story</text>
  <text x="96" y="560" fill="#CBD5E1" font-family="Arial, Apple SD Gothic Neo, sans-serif" font-size="46" font-weight="800">Link List Cleaner</text>
  <text x="96" y="597" fill="#64748B" font-family="Arial, Apple SD Gothic Neo, sans-serif" font-size="22">Extract URLs · Deduplicate · Strip tracking tags</text>
</svg>