<svg xmlns="http://www.w3.org/2000/svg" width="1200" height="630" viewBox="0 0 1200 630">
  <defs><linearGradient id="g" x1="0" x2="1" y1="0" y2="1"><stop offset="0" stop-color="#111827"/><stop offset="1" stop-color="#7c3aed"/></linearGradient></defs>
  <rect width="1200" height="630" rx="48" fill="url(#g)"/>
  <rect x="120" y="78" width="960" height="120" rx="22" fill="#f8fafc" opacity=".95"/>
  <text x="600" y="153" text-anchor="middle" font-family="Arial, sans-serif" font-size="54" font-weight="700" fill="#111827">Movie Seat Choice</text>
  <path d="M210 260h780l-80 230H290z" fill="#312e81" opacity=".82"/>
  <rect x="330" y="285" width="52" height="38" rx="10" fill="#38bdf8"/>
  <rect x="410" y="285" width="52" height="38" rx="10" fill="#e0e7ff"/>
  <rect x="490" y="285" width="52" height="38" rx="10" fill="#e0e7ff"/>
  <rect x="570" y="285" width="52" height="38" rx="10" fill="#e0e7ff"/>
  <rect x="650" y="285" width="52" height="38" rx="10" fill="#e0e7ff"/>
  <rect x="730" y="285" width="52" height="38" rx="10" fill="#e0e7ff"/>
  <rect x="810" y="285" width="52" height="38" rx="10" fill="#38bdf8"/>
  <rect x="330" y="345" width="52" height="38" rx="10" fill="#38bdf8"/>
  <rect x="410" y="345" width="52" height="38" rx="10" fill="#e0e7ff"/>
  <rect x="490" y="345" width="52" height="38" rx="10" fill="#e0e7ff"/>
  <rect x="570" y="345" width="52" height="38" rx="10" fill="#facc15"/>
  <rect x="650" y="345" width="52" height="38" rx="10" fill="#e0e7ff"/>
  <rect x="730" y="345" width="52" height="38" rx="10" fill="#e0e7ff"/>
  <rect x="810" y="345" width="52" height="38" rx="10" fill="#38bdf8"/>
  <rect x="330" y="405" width="52" height="38" rx="10" fill="#38bdf8"/>
  <rect x="410" y="405" width="52" height="38" rx="10" fill="#e0e7ff"/>
  <rect x="490" y="405" width="52" height="38" rx="10" fill="#e0e7ff"/>
  <rect x="570" y="405" width="52" height="38" rx="10" fill="#facc15"/>
  <rect x="650" y="405" width="52" height="38" rx="10" fill="#e0e7ff"/>
  <rect x="730" y="405" width="52" height="38" rx="10" fill="#e0e7ff"/>
  <rect x="810" y="405" width="52" height="38" rx="10" fill="#38bdf8"/>
  <rect x="330" y="465" width="52" height="38" rx="10" fill="#38bdf8"/>
  <rect x="410" y="465" width="52" height="38" rx="10" fill="#e0e7ff"/>
  <rect x="490" y="465" width="52" height="38" rx="10" fill="#e0e7ff"/>
  <rect x="570" y="465" width="52" height="38" rx="10" fill="#e0e7ff"/>
  <rect x="650" y="465" width="52" height="38" rx="10" fill="#e0e7ff"/>
  <rect x="730" y="465" width="52" height="38" rx="10" fill="#e0e7ff"/>
  <rect x="810" y="465" width="52" height="38" rx="10" fill="#38bdf8"/>
  <text x="600" y="555" text-anchor="middle" font-family="Arial, sans-serif" font-size="36" font-weight="700" fill="#fff">CENTER · AISLE · COMFORT</text>
</svg>
