<svg width="1200" height="630" viewBox="0 0 1200 630" fill="none" xmlns="http://www.w3.org/2000/svg">
  <rect width="1200" height="630" rx="36" fill="#F4F7FB"/>
  <rect x="70" y="70" width="1060" height="490" rx="28" fill="white"/>
  <rect x="120" y="118" width="420" height="330" rx="24" fill="#EEF4FF"/>
  <rect x="160" y="160" width="250" height="28" rx="14" fill="#3B82F6" fill-opacity="0.18"/>
  <rect x="160" y="208" width="300" height="22" rx="11" fill="#1E3A8A" fill-opacity="0.16"/>
  <rect x="160" y="252" width="220" height="22" rx="11" fill="#1E3A8A" fill-opacity="0.12"/>
  <rect x="160" y="308" width="320" height="76" rx="18" fill="white" stroke="#BFDBFE" stroke-width="2"/>
  <rect x="178" y="330" width="180" height="14" rx="7" fill="#60A5FA" fill-opacity="0.28"/>
  <rect x="178" y="356" width="252" height="12" rx="6" fill="#93C5FD" fill-opacity="0.45"/>
  <rect x="570" y="118" width="500" height="120" rx="24" fill="#2563EB"/>
  <text x="610" y="170" fill="white" font-size="42" font-family="Pretendard, Apple SD Gothic Neo, sans-serif" font-weight="700">Schedule</text>
  <text x="610" y="220" fill="#DBEAFE" font-size="28" font-family="Pretendard, Apple SD Gothic Neo, sans-serif" font-weight="600">Message Generator</text>
  <rect x="570" y="272" width="500" height="176" rx="24" fill="#F8FAFC" stroke="#E2E8F0" stroke-width="2"/>
  <rect x="606" y="314" width="390" height="20" rx="10" fill="#0F172A" fill-opacity="0.12"/>
  <rect x="606" y="350" width="330" height="18" rx="9" fill="#0F172A" fill-opacity="0.08"/>
  <rect x="606" y="388" width="288" height="18" rx="9" fill="#0F172A" fill-opacity="0.08"/>
  <rect x="920" y="478" width="150" height="44" rx="22" fill="#22C55E"/>
  <text x="952" y="507" fill="white" font-size="22" font-family="Pretendard, Apple SD Gothic Neo, sans-serif" font-weight="700">Copy</text>
  <circle cx="476" cy="166" r="42" fill="#2563EB"/>
  <path d="M458 166H494" stroke="white" stroke-width="10" stroke-linecap="round"/>
  <path d="M476 148V184" stroke="white" stroke-width="10" stroke-linecap="round"/>
</svg>
