<svg width="1200" height="630" viewBox="0 0 1200 630" fill="none" xmlns="http://www.w3.org/2000/svg">
  <rect width="1200" height="630" rx="36" fill="#F8FAFC"/>
  <rect x="56" y="56" width="1088" height="518" rx="28" fill="#E2E8F0"/>
  <rect x="96" y="96" width="1008" height="438" rx="28" fill="#0F172A"/>
  <rect x="152" y="152" width="356" height="284" rx="24" fill="#1E293B"/>
  <rect x="188" y="192" width="184" height="24" rx="12" fill="#38BDF8"/>
  <rect x="188" y="244" width="196" height="18" rx="9" fill="#CBD5E1"/>
  <rect x="188" y="282" width="152" height="18" rx="9" fill="#CBD5E1"/>
  <rect x="188" y="320" width="220" height="18" rx="9" fill="#CBD5E1"/>
  <rect x="188" y="358" width="168" height="18" rx="9" fill="#CBD5E1"/>
  <circle cx="434" cy="250" r="56" fill="#22C55E"/>
  <path d="M410 250L428 268L462 234" stroke="white" stroke-width="14" stroke-linecap="round" stroke-linejoin="round"/>
  <rect x="560" y="170" width="456" height="52" rx="18" fill="#38BDF8"/>
  <rect x="560" y="248" width="384" height="20" rx="10" fill="#CBD5E1"/>
  <rect x="560" y="288" width="332" height="20" rx="10" fill="#CBD5E1"/>
  <rect x="560" y="328" width="400" height="20" rx="10" fill="#CBD5E1"/>
  <rect x="560" y="396" width="196" height="56" rx="18" fill="#F59E0B"/>
  <rect x="784" y="396" width="232" height="56" rx="18" fill="#1D4ED8"/>
  <text x="560" y="142" fill="#E2E8F0" font-family="Arial, sans-serif" font-size="28" font-weight="700">Secondhand Trade Checklist Planner</text>
</svg>
