<svg xmlns="http://www.w3.org/2000/svg" width="1200" height="630" viewBox="0 0 1200 630" role="img" aria-labelledby="title desc">
  <title id="title">고객센터 문의 문구 생성기</title>
  <desc id="desc">말풍선과 체크 표시가 있는 고객센터 문의 문구 생성기 썸네일</desc>
  <defs>
    <linearGradient id="bg" x1="0" y1="0" x2="1" y2="1">
      <stop offset="0" stop-color="#ecfeff"/>
      <stop offset="1" stop-color="#eef2ff"/>
    </linearGradient>
    <filter id="shadow" x="-20%" y="-20%" width="140%" height="140%">
      <feDropShadow dx="0" dy="18" stdDeviation="18" flood-color="#0f172a" flood-opacity="0.16"/>
    </filter>
  </defs>
  <rect width="1200" height="630" rx="48" fill="url(#bg)"/>
  <circle cx="1010" cy="118" r="92" fill="#c7d2fe" opacity="0.58"/>
  <circle cx="152" cy="526" r="110" fill="#a5f3fc" opacity="0.5"/>
  <rect x="126" y="112" width="948" height="406" rx="42" fill="#ffffff" filter="url(#shadow)"/>
  <rect x="188" y="174" width="500" height="64" rx="32" fill="#0f766e" opacity="0.12"/>
  <rect x="188" y="268" width="688" height="38" rx="19" fill="#334155" opacity="0.12"/>
  <rect x="188" y="332" width="592" height="38" rx="19" fill="#334155" opacity="0.1"/>
  <rect x="188" y="396" width="646" height="38" rx="19" fill="#334155" opacity="0.1"/>
  <path d="M870 172h78c55 0 100 45 100 100v35c0 55-45 100-100 100h-16l-62 58v-58h0c-55 0-100-45-100-100v-35c0-55 45-100 100-100z" fill="#0f766e"/>
  <path d="M854 287l48 48 94-108" fill="none" stroke="#fff" stroke-width="28" stroke-linecap="round" stroke-linejoin="round"/>
  <text x="188" y="220" font-family="-apple-system,BlinkMacSystemFont,'Segoe UI',sans-serif" font-size="46" font-weight="800" fill="#0f172a">고객센터 문의 문구</text>
  <text x="188" y="488" font-family="-apple-system,BlinkMacSystemFont,'Segoe UI',sans-serif" font-size="30" font-weight="700" fill="#0f766e">환불 · 교환 · 오류 문의를 정중하게</text>
</svg>
