<svg width="1200" height="630" viewBox="0 0 1200 630" fill="none" xmlns="http://www.w3.org/2000/svg">
  <rect width="1200" height="630" rx="36" fill="#0F172A"/>
  <rect x="44" y="44" width="1112" height="542" rx="28" fill="#111827" stroke="#334155" stroke-width="2"/>
  <rect x="88" y="92" width="340" height="446" rx="24" fill="#1E293B"/>
  <rect x="128" y="132" width="260" height="116" rx="18" fill="#020617" stroke="#475569" stroke-width="2"/>
  <text x="258" y="176" text-anchor="middle" fill="#E2E8F0" font-family="Arial, sans-serif" font-size="30" font-weight="700">目標貯蓄期間</text>
  <text x="258" y="214" text-anchor="middle" fill="#94A3B8" font-family="Arial, sans-serif" font-size="20">目標金額まで何か月？</text>
  <rect x="128" y="286" width="260" height="88" rx="18" fill="#0F172A" stroke="#334155"/>
  <text x="154" y="321" fill="#94A3B8" font-family="Arial, sans-serif" font-size="18">現在額</text>
  <text x="154" y="354" fill="#F8FAFC" font-family="Arial, sans-serif" font-size="28" font-weight="700">2,000,000ウォン</text>
  <rect x="128" y="392" width="260" height="88" rx="18" fill="#0F172A" stroke="#334155"/>
  <text x="154" y="427" fill="#94A3B8" font-family="Arial, sans-serif" font-size="18">毎月積立</text>
  <text x="154" y="460" fill="#F8FAFC" font-family="Arial, sans-serif" font-size="28" font-weight="700">500,000ウォン</text>
  <rect x="460" y="92" width="616" height="446" rx="24" fill="#020617" stroke="#1E293B" stroke-width="2"/>
  <text x="510" y="152" fill="#E2E8F0" font-family="Arial, sans-serif" font-size="42" font-weight="700">Goal Savings</text>
  <text x="510" y="194" fill="#94A3B8" font-family="Arial, sans-serif" font-size="24">必要月数・総納入額・想定利息を計算</text>
  <rect x="510" y="238" width="250" height="118" rx="20" fill="#0F172A" stroke="#334155"/>
  <text x="540" y="282" fill="#94A3B8" font-family="Arial, sans-serif" font-size="20">必要期間</text>
  <text x="540" y="330" fill="#22C55E" font-family="Arial, sans-serif" font-size="42" font-weight="800">16か月</text>
  <rect x="790" y="238" width="250" height="118" rx="20" fill="#0F172A" stroke="#334155"/>
  <text x="820" y="282" fill="#94A3B8" font-family="Arial, sans-serif" font-size="20">期間換算</text>
  <text x="820" y="330" fill="#60A5FA" font-family="Arial, sans-serif" font-size="42" font-weight="800">1年4か月</text>
  <rect x="510" y="384" width="250" height="118" rx="20" fill="#0F172A" stroke="#334155"/>
  <text x="540" y="428" fill="#94A3B8" font-family="Arial, sans-serif" font-size="20">総納入額</text>
  <text x="540" y="476" fill="#F59E0B" font-family="Arial, sans-serif" font-size="34" font-weight="800">8,000,000ウォン</text>
  <rect x="790" y="384" width="250" height="118" rx="20" fill="#0F172A" stroke="#334155"/>
  <text x="820" y="428" fill="#94A3B8" font-family="Arial, sans-serif" font-size="20">想定利息</text>
  <text x="820" y="476" fill="#F472B6" font-family="Arial, sans-serif" font-size="34" font-weight="800">約253,661</text>
</svg>
