<svg xmlns="http://www.w3.org/2000/svg" width="1200" height="630" viewBox="0 0 1200 630" role="img" aria-labelledby="title desc">
  <title id="title">食材消費期限優先度チェッカー</title>
  <desc id="desc">冷蔵庫の食材とチェックリストを表したサムネイル</desc>
  <defs><linearGradient id="bg" x1="0" y1="0" x2="1" y2="1"><stop offset="0" stop-color="#ecfdf5"/><stop offset="1" stop-color="#dbeafe"/></linearGradient><filter id="shadow" x="-20%" y="-20%" width="140%" height="140%"><feDropShadow dx="0" dy="14" stdDeviation="18" flood-color="#0f172a" flood-opacity="0.18"/></filter></defs>
  <rect width="1200" height="630" rx="48" fill="url(#bg)"/>
  <circle cx="1000" cy="110" r="120" fill="#bbf7d0" opacity="0.7"/>
  <circle cx="150" cy="520" r="150" fill="#bfdbfe" opacity="0.7"/>
  <g filter="url(#shadow)"><rect x="140" y="110" width="430" height="410" rx="36" fill="#ffffff"/><rect x="185" y="160" width="340" height="58" rx="18" fill="#dcfce7"/><rect x="185" y="252" width="340" height="42" rx="14" fill="#fef3c7"/><rect x="185" y="326" width="340" height="42" rx="14" fill="#fee2e2"/><rect x="185" y="400" width="340" height="42" rx="14" fill="#e0f2fe"/><path d="M230 278l22 22 42-52" fill="none" stroke="#16a34a" stroke-width="16" stroke-linecap="round" stroke-linejoin="round"/><path d="M230 352l22 22 42-52" fill="none" stroke="#f97316" stroke-width="16" stroke-linecap="round" stroke-linejoin="round"/><path d="M230 426l22 22 42-52" fill="none" stroke="#2563eb" stroke-width="16" stroke-linecap="round" stroke-linejoin="round"/></g>
  <g filter="url(#shadow)"><rect x="665" y="150" width="350" height="310" rx="42" fill="#f8fafc"/><rect x="710" y="205" width="260" height="170" rx="28" fill="#e2e8f0"/><rect x="735" y="230" width="210" height="36" rx="12" fill="#ffffff"/><rect x="735" y="286" width="90" height="66" rx="18" fill="#86efac"/><rect x="850" y="286" width="95" height="66" rx="18" fill="#fca5a5"/><path d="M788 286c-24-34-12-68 26-82 18 38 12 67-26 82z" fill="#22c55e"/><path d="M895 286c28-30 66-20 82 16-36 18-65 12-82-16z" fill="#ef4444"/></g>
  <text x="120" y="82" font-family="Noto Sans JP, Arial, sans-serif" font-size="34" font-weight="800" fill="#15803d">TOOLOG</text>
  <text x="620" y="215" font-family="Noto Sans JP, Arial, sans-serif" font-size="54" font-weight="900" fill="#0f172a">食材消費期限</text>
  <text x="620" y="283" font-family="Noto Sans JP, Arial, sans-serif" font-size="54" font-weight="900" fill="#0f172a">優先度チェッカー</text>
  <text x="620" y="345" font-family="Noto Sans JP, Arial, sans-serif" font-size="28" font-weight="700" fill="#475569">先に使う食材を整理</text>
</svg>
