<svg width="1200" height="630" viewBox="0 0 1200 630" fill="none" xmlns="http://www.w3.org/2000/svg">
  <rect width="1200" height="630" rx="36" fill="#FFF7ED"/>
  <rect x="56" y="56" width="1088" height="518" rx="30" fill="#FFEDD5"/>
  <rect x="92" y="100" width="520" height="430" rx="28" fill="#FFFFFF"/>
  <rect x="654" y="100" width="454" height="430" rx="28" fill="#FB923C"/>
  <circle cx="870" cy="226" r="92" fill="#FFF7ED"/>
  <circle cx="840" cy="208" r="14" fill="#EA580C"/>
  <circle cx="900" cy="208" r="14" fill="#EA580C"/>
  <path d="M830 258C846 278 894 278 910 258" stroke="#EA580C" stroke-width="14" stroke-linecap="round"/>
  <rect x="720" y="352" width="320" height="24" rx="12" fill="#FFEDD5"/>
  <rect x="720" y="394" width="254" height="24" rx="12" fill="#FFEDD5"/>
  <rect x="720" y="436" width="286" height="24" rx="12" fill="#FFEDD5"/>
  <text x="130" y="200" fill="#9A3412" font-family="Arial, sans-serif" font-size="60" font-weight="800">ランチメニューピッカー</text>
  <text x="130" y="278" fill="#C2410C" font-family="Arial, sans-serif" font-size="30" font-weight="600">気分・予算・人数に合わせて3候補を提案</text>
  <rect x="130" y="340" width="230" height="56" rx="28" fill="#FED7AA"/>
  <text x="168" y="377" fill="#9A3412" font-family="Arial, sans-serif" font-size="26" font-weight="700">一人 / チーム</text>
  <rect x="378" y="340" width="160" height="56" rx="28" fill="#FED7AA"/>
  <text x="426" y="377" fill="#9A3412" font-family="Arial, sans-serif" font-size="26" font-weight="700">予算</text>
  <rect x="130" y="420" width="332" height="56" rx="28" fill="#FED7AA"/>
  <text x="166" y="457" fill="#9A3412" font-family="Arial, sans-serif" font-size="24" font-weight="700">しっかり / 軽め / 刺激系</text>
</svg>
