<svg width="1200" height="630" viewBox="0 0 1200 630" fill="none" xmlns="http://www.w3.org/2000/svg">
  <defs>
    <linearGradient id="bg" x1="0" y1="0" x2="1200" y2="630" gradientUnits="userSpaceOnUse">
      <stop stop-color="#0F172A"/>
      <stop offset="1" stop-color="#14532D"/>
    </linearGradient>
    <linearGradient id="card" x1="190" y1="110" x2="1010" y2="520" gradientUnits="userSpaceOnUse">
      <stop stop-color="#F8FAFC"/>
      <stop offset="1" stop-color="#ECFCCB"/>
    </linearGradient>
  </defs>
  <rect width="1200" height="630" rx="32" fill="url(#bg)"/>
  <rect x="88" y="72" width="1024" height="486" rx="32" fill="#020617" fill-opacity="0.18"/>
  <rect x="180" y="105" width="840" height="420" rx="28" fill="url(#card)"/>

  <rect x="238" y="162" width="310" height="56" rx="16" fill="#DCFCE7"/>
  <text x="265" y="198" fill="#166534" font-family="Pretendard, Apple SD Gothic Neo, sans-serif" font-size="28" font-weight="700">TOOLOG LEARNING TOOL</text>

  <text x="238" y="286" fill="#0F172A" font-family="Pretendard, Apple SD Gothic Neo, sans-serif" font-size="54" font-weight="800">暗記クイズ生成ツール</text>
  <text x="240" y="340" fill="#334155" font-family="Pretendard, Apple SD Gothic Neo, sans-serif" font-size="28" font-weight="500">質問と答えのノートをランダム自己テスト化</text>

  <rect x="240" y="392" width="252" height="78" rx="18" fill="#F0FDF4"/>
  <text x="266" y="430" fill="#15803D" font-family="Pretendard, Apple SD Gothic Neo, sans-serif" font-size="26" font-weight="700">ランダム出題</text>
  <text x="266" y="458" fill="#475569" font-family="Pretendard, Apple SD Gothic Neo, sans-serif" font-size="22">カード順を自動でシャッフル</text>

  <rect x="512" y="392" width="220" height="78" rx="18" fill="#ECFDF5"/>
  <text x="538" y="430" fill="#047857" font-family="Pretendard, Apple SD Gothic Neo, sans-serif" font-size="26" font-weight="700">答えを見る</text>
  <text x="538" y="458" fill="#475569" font-family="Pretendard, Apple SD Gothic Neo, sans-serif" font-size="22">思い出した後に確認</text>

  <rect x="752" y="392" width="214" height="78" rx="18" fill="#DCFCE7"/>
  <text x="778" y="430" fill="#166534" font-family="Pretendard, Apple SD Gothic Neo, sans-serif" font-size="26" font-weight="700">復習リスト</text>
  <text x="778" y="458" fill="#475569" font-family="Pretendard, Apple SD Gothic Neo, sans-serif" font-size="22">間違えたカードを再確認</text>

  <g transform="translate(870 150)">
    <rect x="0" y="24" width="116" height="146" rx="18" fill="#FFFFFF" stroke="#BBF7D0" stroke-width="5"/>
    <rect x="20" y="46" width="76" height="16" rx="8" fill="#DCFCE7"/>
    <rect x="20" y="78" width="64" height="10" rx="5" fill="#CBD5E1"/>
    <rect x="20" y="98" width="52" height="10" rx="5" fill="#CBD5E1"/>
    <rect x="20" y="118" width="58" height="10" rx="5" fill="#CBD5E1"/>
    <circle cx="98" cy="28" r="22" fill="#16A34A"/>
    <path d="M88 28L96 36L110 20" stroke="white" stroke-width="6" stroke-linecap="round" stroke-linejoin="round"/>
  </g>
  <g transform="translate(792 174)">
    <rect x="0" y="0" width="70" height="94" rx="14" fill="#FEFCE8" stroke="#86EFAC" stroke-width="4"/>
    <text x="17" y="38" fill="#14532D" font-family="Pretendard, Apple SD Gothic Neo, sans-serif" font-size="20" font-weight="800">Q</text>
    <rect x="14" y="52" width="42" height="8" rx="4" fill="#A7F3D0"/>
    <rect x="14" y="68" width="34" height="8" rx="4" fill="#A7F3D0"/>
  </g>
</svg>
