<svg xmlns="http://www.w3.org/2000/svg" viewBox="0 0 1200 630" role="img" aria-labelledby="title desc">
  <title id="title">メッセージトーンチェッカー</title>
  <desc id="desc">強い言い回し、謝罪の重なり、依頼の明確さ、締切言及を点検するツールのサムネイル</desc>
  <defs><linearGradient id="bg" x1="0" y1="0" x2="1" y2="1"><stop offset="0%" stop-color="#0f172a"/><stop offset="100%" stop-color="#1d4ed8"/></linearGradient></defs>
  <rect width="1200" height="630" fill="url(#bg)" rx="36"/>
  <rect x="76" y="84" width="1048" height="462" rx="30" fill="#eff6ff" opacity="0.97"/>
  <rect x="124" y="132" width="360" height="62" rx="16" fill="#dbeafe"/>
  <text x="150" y="174" font-family="Arial, sans-serif" font-size="32" font-weight="700" fill="#1e3a8a">仕事 / コミュニケーション</text>
  <text x="124" y="270" font-family="Arial, sans-serif" font-size="66" font-weight="800" fill="#0f172a">メッセージトーンチェッカー</text>
  <text x="126" y="330" font-family="Arial, sans-serif" font-size="28" fill="#334155">強い表現・謝罪の重なり・締切有無を点検</text>
  <rect x="742" y="150" width="286" height="316" rx="26" fill="#ffffff" stroke="#bfdbfe" stroke-width="4"/>
  <rect x="772" y="186" width="182" height="20" rx="10" fill="#cbd5e1"/>
  <rect x="772" y="224" width="210" height="20" rx="10" fill="#cbd5e1"/>
  <rect x="772" y="262" width="164" height="20" rx="10" fill="#cbd5e1"/>
  <rect x="772" y="320" width="210" height="56" rx="18" fill="#dbeafe"/>
  <text x="792" y="355" font-family="Arial, sans-serif" font-size="28" font-weight="700" fill="#1d4ed8">点検結果</text>
  <circle cx="796" cy="414" r="11" fill="#ef4444"/>
  <text x="822" y="423" font-family="Arial, sans-serif" font-size="24" fill="#0f172a">強い表現 2件</text>
  <circle cx="796" cy="454" r="11" fill="#f59e0b"/>
  <text x="822" y="463" font-family="Arial, sans-serif" font-size="24" fill="#0f172a">締切の記載なし</text>
</svg>
