<svg width="1200" height="630" viewBox="0 0 1200 630" fill="none" xmlns="http://www.w3.org/2000/svg">
  <defs>
    <linearGradient id="bg" x1="0" y1="0" x2="1200" y2="630" gradientUnits="userSpaceOnUse">
      <stop stop-color="#0F172A"/>
      <stop offset="1" stop-color="#1E3A8A"/>
    </linearGradient>
    <linearGradient id="card" x1="240" y1="120" x2="960" y2="510" gradientUnits="userSpaceOnUse">
      <stop stop-color="#F8FAFC"/>
      <stop offset="1" stop-color="#E2E8F0"/>
    </linearGradient>
  </defs>
  <rect width="1200" height="630" rx="32" fill="url(#bg)"/>
  <rect x="90" y="70" width="1020" height="490" rx="32" fill="#0B1220" fill-opacity="0.24"/>
  <rect x="180" y="105" width="840" height="420" rx="28" fill="url(#card)"/>
  <rect x="240" y="165" width="308" height="56" rx="16" fill="#DBEAFE"/>
  <text x="268" y="201" fill="#1D4ED8" font-family="Arial, sans-serif" font-size="28" font-weight="700">TOOLOG LIFE PLANNER</text>
  <text x="240" y="290" fill="#0F172A" font-family="Arial, sans-serif" font-size="50" font-weight="800">引っ越しチェックリスト</text>
  <text x="242" y="345" fill="#334155" font-family="Arial, sans-serif" font-size="28" font-weight="500">2週間前・3日前・当日の準備を整理</text>
  <rect x="240" y="392" width="308" height="78" rx="18" fill="#EFF6FF"/>
  <text x="266" y="430" fill="#1E40AF" font-family="Arial, sans-serif" font-size="26" font-weight="700">2週間前</text>
  <text x="266" y="458" fill="#475569" font-family="Arial, sans-serif" font-size="22">予約・住所変更準備</text>
  <rect x="568" y="392" width="188" height="78" rx="18" fill="#EEF2FF"/>
  <text x="594" y="430" fill="#4338CA" font-family="Arial, sans-serif" font-size="26" font-weight="700">3日前</text>
  <text x="594" y="458" fill="#475569" font-family="Arial, sans-serif" font-size="20">冷蔵庫整理</text>
  <rect x="776" y="392" width="184" height="78" rx="18" fill="#ECFDF5"/>
  <text x="802" y="430" fill="#047857" font-family="Arial, sans-serif" font-size="26" font-weight="700">当日</text>
  <text x="802" y="458" fill="#475569" font-family="Arial, sans-serif" font-size="20">鍵・メーター確認</text>
  <g transform="translate(875 145)">
    <rect x="0" y="0" width="86" height="112" rx="16" fill="#FFFFFF" stroke="#CBD5E1" stroke-width="4"/>
    <rect x="12" y="18" width="62" height="16" rx="8" fill="#BFDBFE"/>
    <rect x="12" y="48" width="52" height="8" rx="4" fill="#CBD5E1"/>
    <rect x="12" y="66" width="46" height="8" rx="4" fill="#CBD5E1"/>
    <rect x="12" y="84" width="40" height="8" rx="4" fill="#CBD5E1"/>
    <path d="M24 48L30 54L42 40" stroke="#2563EB" stroke-width="6" stroke-linecap="round" stroke-linejoin="round"/>
  </g>
  <g transform="translate(957 160)">
    <path d="M0 44L42 12L84 44V90H0V44Z" fill="#3B82F6"/>
    <rect x="12" y="48" width="60" height="42" fill="#DBEAFE"/>
    <rect x="34" y="64" width="16" height="26" fill="#1E3A8A"/>
  </g>
</svg>
