<svg width="1200" height="630" viewBox="0 0 1200 630" fill="none" xmlns="http://www.w3.org/2000/svg">
  <rect width="1200" height="630" rx="36" fill="#0F172A"/>
  <rect x="72" y="72" width="1056" height="486" rx="28" fill="#111827" stroke="#334155" stroke-width="4"/>
  <rect x="120" y="138" width="520" height="320" rx="24" fill="#1E293B"/>
  <rect x="160" y="192" width="440" height="56" rx="16" fill="#0F172A" stroke="#475569"/>
  <circle cx="204" cy="220" r="12" fill="#22C55E"/>
  <rect x="232" y="206" width="324" height="28" rx="10" fill="#334155"/>
  <rect x="160" y="278" width="120" height="88" rx="20" fill="#1D4ED8"/>
  <text x="220" y="332" text-anchor="middle" font-family="Arial, sans-serif" font-size="30" font-weight="700" fill="white">92点</text>
  <rect x="304" y="278" width="120" height="88" rx="20" fill="#16A34A"/>
  <text x="364" y="332" text-anchor="middle" font-family="Arial, sans-serif" font-size="26" font-weight="700" fill="white">強い</text>
  <rect x="448" y="278" width="120" height="88" rx="20" fill="#DC2626"/>
  <text x="508" y="332" text-anchor="middle" font-family="Arial, sans-serif" font-size="24" font-weight="700" fill="white">注意</text>
  <path d="M800 194C800 150.922 834.922 116 878 116C921.078 116 956 150.922 956 194V232H996C1013.67 232 1028 246.327 1028 264V418C1028 435.673 1013.67 450 996 450H760C742.327 450 728 435.673 728 418V264C728 246.327 742.327 232 760 232H800V194Z" fill="#0F172A" stroke="#60A5FA" stroke-width="8"/>
  <path d="M850 232V194C850 178.536 862.536 166 878 166C893.464 166 906 178.536 906 194V232" stroke="#60A5FA" stroke-width="16" stroke-linecap="round"/>
  <circle cx="878" cy="320" r="34" fill="#F8FAFC"/>
  <rect x="866" y="348" width="24" height="44" rx="12" fill="#F8FAFC"/>
  <text x="120" y="520" font-family="Arial, sans-serif" font-size="52" font-weight="800" fill="white">パスワード強度チェッカー</text>
  <text x="120" y="568" font-family="Arial, sans-serif" font-size="28" font-weight="500" fill="#CBD5E1">長さ · 文字構成 · 繰り返し · よくあるパターンを点検</text>
</svg>
