<svg xmlns="http://www.w3.org/2000/svg" width="1200" height="630" viewBox="0 0 1200 630" fill="none">
  <rect width="1200" height="630" rx="36" fill="#0F172A"/>
  <rect x="72" y="72" width="1056" height="486" rx="28" fill="#111827" stroke="#334155" stroke-width="2"/>
  <rect x="120" y="128" width="420" height="42" rx="12" fill="#1E293B"/>
  <rect x="120" y="190" width="500" height="18" rx="9" fill="#475569"/>
  <rect x="120" y="224" width="430" height="18" rx="9" fill="#475569"/>
  <rect x="120" y="258" width="360" height="18" rx="9" fill="#475569"/>
  <rect x="120" y="322" width="440" height="18" rx="9" fill="#334155"/>
  <rect x="120" y="356" width="390" height="18" rx="9" fill="#334155"/>
  <rect x="120" y="390" width="470" height="18" rx="9" fill="#334155"/>
  <circle cx="788" cy="219" r="96" fill="#1D4ED8"/>
  <path d="M748 214h70" stroke="#F8FAFC" stroke-width="20" stroke-linecap="round"/>
  <path d="M768 250l50-36-50-36" stroke="#F8FAFC" stroke-width="20" stroke-linecap="round" stroke-linejoin="round"/>
  <rect x="694" y="345" width="300" height="120" rx="24" fill="#0B1220" stroke="#38BDF8" stroke-width="2"/>
  <path d="M736 384h150" stroke="#38BDF8" stroke-width="14" stroke-linecap="round"/>
  <path d="M736 418h210" stroke="#38BDF8" stroke-width="14" stroke-linecap="round"/>
  <path d="M736 452h118" stroke="#38BDF8" stroke-width="14" stroke-linecap="round"/>
  <text x="120" y="502" fill="#E2E8F0" font-family="Arial, sans-serif" font-size="48" font-weight="700">テキスト改行クリーナー</text>
  <text x="120" y="542" fill="#94A3B8" font-family="Arial, sans-serif" font-size="24">空白・空行・箇条書き・段落改行を整理</text>
</svg>
