<svg xmlns="http://www.w3.org/2000/svg" width="1200" height="630" viewBox="0 0 1200 630" role="img" aria-labelledby="title desc">
  <title id="title">単価計算</title>
  <desc id="desc">Unit price calculator thumbnail</desc>
  <defs>
    <linearGradient id="bg" x1="0" y1="0" x2="1" y2="1">
      <stop offset="0%" stop-color="#0f172a"/>
      <stop offset="100%" stop-color="#2563eb"/>
    </linearGradient>
  </defs>
  <rect width="1200" height="630" fill="url(#bg)" rx="40"/>
  <rect x="70" y="80" width="1060" height="470" rx="28" fill="#ffffff" opacity="0.08"/>
  <g fill="#e2e8f0">
    <rect x="120" y="150" width="220" height="54" rx="14" fill="#93c5fd" opacity="0.35"/>
    <rect x="120" y="235" width="280" height="20" rx="10"/>
    <rect x="120" y="275" width="200" height="20" rx="10" opacity="0.7"/>
    <rect x="120" y="335" width="360" height="110" rx="22" fill="#ffffff" opacity="0.12"/>
    <rect x="520" y="150" width="240" height="54" rx="14" fill="#bfdbfe" opacity="0.45"/>
    <rect x="520" y="235" width="290" height="20" rx="10"/>
    <rect x="520" y="275" width="230" height="20" rx="10" opacity="0.7"/>
    <rect x="520" y="335" width="240" height="110" rx="22" fill="#ffffff" opacity="0.12"/>
    <rect x="820" y="120" width="230" height="300" rx="26" fill="#0b1220" opacity="0.35"/>
    <rect x="860" y="170" width="150" height="150" rx="75" fill="#22c55e" opacity="0.9"/>
    <text x="935" y="262" font-size="74" text-anchor="middle" fill="#0f172a" font-family="Arial, sans-serif" font-weight="700">₩</text>
    <text x="160" y="188" font-size="30" fill="#ffffff" font-family="Arial, sans-serif" font-weight="700">単価計算</text>
    <text x="860" y="480" font-size="34" fill="#dbeafe" font-family="Arial, sans-serif" font-weight="700">COMPARE VALUE FAST</text>
  </g>
</svg>
