<svg width="1200" height="630" viewBox="0 0 1200 630" fill="none" xmlns="http://www.w3.org/2000/svg">
  <rect width="1200" height="630" rx="36" fill="#0F172A"/>
  <rect x="56" y="56" width="1088" height="518" rx="28" fill="#111827" stroke="#334155" stroke-width="4"/>
  <circle cx="220" cy="180" r="92" fill="#1E293B" stroke="#93C5FD" stroke-width="10"/>
  <path d="M220 128V184L258 214" stroke="#F8FAFC" stroke-width="14" stroke-linecap="round" stroke-linejoin="round"/>
  <circle cx="220" cy="180" r="10" fill="#F8FAFC"/>
  <path d="M170 250C205 228 240 228 274 250" stroke="#38BDF8" stroke-width="10" stroke-linecap="round"/>
  <rect x="352" y="126" width="430" height="34" rx="17" fill="#1D4ED8"/>
  <rect x="352" y="188" width="512" height="34" rx="17" fill="#334155"/>
  <rect x="352" y="250" width="458" height="34" rx="17" fill="#334155"/>
  <rect x="352" y="312" width="562" height="34" rx="17" fill="#334155"/>
  <rect x="830" y="120" width="256" height="190" rx="24" fill="#0B1220" stroke="#475569" stroke-width="4"/>
  <rect x="868" y="154" width="180" height="38" rx="12" fill="#E2E8F0"/>
  <rect x="868" y="210" width="112" height="18" rx="9" fill="#64748B"/>
  <rect x="868" y="244" width="146" height="18" rx="9" fill="#64748B"/>
  <path d="M870 392H1032" stroke="#38BDF8" stroke-width="12" stroke-linecap="round"/>
  <circle cx="1060" cy="392" r="22" fill="#38BDF8"/>
  <path d="M1052 392H1068" stroke="#0F172A" stroke-width="6" stroke-linecap="round"/>
  <path d="M360 430H842" stroke="#1E293B" stroke-width="56" stroke-linecap="round"/>
  <text x="94" y="516" fill="#F8FAFC" font-family="Apple SD Gothic Neo, Pretendard, sans-serif" font-size="56" font-weight="700">약속 출발 시간 버퍼 시뮬레이터</text>
  <text x="96" y="558" fill="#93C5FD" font-family="Apple SD Gothic Neo, Pretendard, sans-serif" font-size="28">준비 시작 · 출발 시각 · 여유 버퍼 계산</text>
</svg>
