<svg xmlns="http://www.w3.org/2000/svg" width="1200" height="630" viewBox="0 0 1200 630" fill="none">
  <rect width="1200" height="630" rx="36" fill="#0F172A"/>
  <rect x="58" y="58" width="1084" height="514" rx="28" fill="#111827" stroke="#334155"/>
  <rect x="104" y="108" width="364" height="72" rx="16" fill="#1E293B"/>
  <rect x="104" y="214" width="420" height="26" rx="13" fill="#475569"/>
  <rect x="104" y="262" width="360" height="26" rx="13" fill="#334155"/>
  <rect x="104" y="322" width="240" height="120" rx="20" fill="#1D4ED8" fill-opacity="0.16" stroke="#3B82F6"/>
  <rect x="372" y="322" width="240" height="120" rx="20" fill="#0F766E" fill-opacity="0.16" stroke="#14B8A6"/>
  <rect x="640" y="322" width="240" height="120" rx="20" fill="#7C3AED" fill-opacity="0.16" stroke="#A78BFA"/>
  <path d="M934 420C977 398 1008 368 1028 330C1052 283 1083 249 1124 228" stroke="#22C55E" stroke-width="22" stroke-linecap="round"/>
  <circle cx="1124" cy="228" r="18" fill="#22C55E"/>
  <text x="104" y="155" fill="#E5E7EB" font-family="Arial, Helvetica, sans-serif" font-size="40" font-weight="700">Average Speed Calculator</text>
  <text x="104" y="504" fill="#CBD5E1" font-family="Arial, Helvetica, sans-serif" font-size="30">km/h · Pace · 5K / 10K Estimate</text>
</svg>
