<svg xmlns="http://www.w3.org/2000/svg" width="1200" height="630" viewBox="0 0 1200 630" role="img" aria-labelledby="title desc">
  <title id="title">마감 역산 일정 플래너</title>
  <desc id="desc">달력과 체크리스트 카드가 있는 일정 플래너 썸네일</desc>
  <defs>
    <linearGradient id="bg" x1="0" x2="1" y1="0" y2="1">
      <stop offset="0%" stop-color="#0f172a"/>
      <stop offset="100%" stop-color="#1d4ed8"/>
    </linearGradient>
  </defs>
  <rect width="1200" height="630" rx="36" fill="url(#bg)"/>
  <rect x="76" y="82" width="390" height="466" rx="28" fill="#eff6ff" opacity="0.96"/>
  <rect x="108" y="124" width="326" height="54" rx="16" fill="#bfdbfe"/>
  <g fill="#1e3a8a">
    <rect x="108" y="214" width="72" height="72" rx="14"/>
    <rect x="196" y="214" width="72" height="72" rx="14" opacity="0.75"/>
    <rect x="284" y="214" width="72" height="72" rx="14" opacity="0.55"/>
    <rect x="108" y="302" width="72" height="72" rx="14" opacity="0.75"/>
    <rect x="196" y="302" width="72" height="72" rx="14" opacity="0.55"/>
    <rect x="284" y="302" width="72" height="72" rx="14"/>
  </g>
  <rect x="532" y="112" width="580" height="110" rx="28" fill="#ffffff" opacity="0.14"/>
  <text x="568" y="160" font-family="Pretendard, Apple SD Gothic Neo, sans-serif" font-size="54" font-weight="700" fill="#f8fafc">마감 역산 일정 플래너</text>
  <text x="568" y="206" font-family="Pretendard, Apple SD Gothic Neo, sans-serif" font-size="28" fill="#dbeafe">제출일 기준으로 오늘부터 할 일을 나눠요</text>
  <rect x="532" y="270" width="528" height="72" rx="22" fill="#ffffff" opacity="0.92"/>
  <rect x="532" y="362" width="478" height="72" rx="22" fill="#ffffff" opacity="0.82"/>
  <rect x="532" y="454" width="420" height="72" rx="22" fill="#ffffff" opacity="0.72"/>
  <g font-family="Pretendard, Apple SD Gothic Neo, sans-serif" font-size="28" font-weight="600" fill="#0f172a">
    <text x="568" y="316">D-5 자료 정리 · 초안 잡기 · 2.5시간</text>
    <text x="568" y="408">D-3 핵심 작성 · 시각자료 보강 · 3시간</text>
    <text x="568" y="500">D-1 최종 검토 · 제출 체크 · 1시간</text>
  </g>
</svg>
