<svg width="1200" height="630" viewBox="0 0 1200 630" fill="none" xmlns="http://www.w3.org/2000/svg">
  <rect width="1200" height="630" rx="36" fill="#0F172A"/>
  <rect x="44" y="44" width="1112" height="542" rx="28" fill="#111827" stroke="#334155" stroke-width="2"/>
  <rect x="88" y="92" width="340" height="446" rx="24" fill="#1E293B"/>
  <rect x="128" y="132" width="260" height="116" rx="18" fill="#020617" stroke="#475569" stroke-width="2"/>
  <text x="258" y="180" text-anchor="middle" fill="#E2E8F0" font-family="Pretendard, Apple SD Gothic Neo, sans-serif" font-size="34" font-weight="700">목표 저축 기간</text>
  <text x="258" y="220" text-anchor="middle" fill="#94A3B8" font-family="Pretendard, Apple SD Gothic Neo, sans-serif" font-size="20">목표 금액까지 몇 달?</text>
  <rect x="128" y="286" width="260" height="88" rx="18" fill="#0F172A" stroke="#334155"/>
  <text x="154" y="321" fill="#94A3B8" font-family="Pretendard, Apple SD Gothic Neo, sans-serif" font-size="18">현재 금액</text>
  <text x="154" y="354" fill="#F8FAFC" font-family="Pretendard, Apple SD Gothic Neo, sans-serif" font-size="28" font-weight="700">2,000,000원</text>
  <rect x="128" y="392" width="260" height="88" rx="18" fill="#0F172A" stroke="#334155"/>
  <text x="154" y="427" fill="#94A3B8" font-family="Pretendard, Apple SD Gothic Neo, sans-serif" font-size="18">월 저축액</text>
  <text x="154" y="460" fill="#F8FAFC" font-family="Pretendard, Apple SD Gothic Neo, sans-serif" font-size="28" font-weight="700">500,000원</text>
  <rect x="460" y="92" width="616" height="446" rx="24" fill="#020617" stroke="#1E293B" stroke-width="2"/>
  <text x="510" y="152" fill="#E2E8F0" font-family="Pretendard, Apple SD Gothic Neo, sans-serif" font-size="42" font-weight="700">Goal Savings</text>
  <text x="510" y="194" fill="#94A3B8" font-family="Pretendard, Apple SD Gothic Neo, sans-serif" font-size="24">목표 금액 달성까지 필요한 기간과 예상 이자 계산</text>
  <rect x="510" y="238" width="250" height="118" rx="20" fill="#0F172A" stroke="#334155"/>
  <text x="540" y="282" fill="#94A3B8" font-family="Pretendard, Apple SD Gothic Neo, sans-serif" font-size="20">필요 기간</text>
  <text x="540" y="330" fill="#22C55E" font-family="Pretendard, Apple SD Gothic Neo, sans-serif" font-size="42" font-weight="800">16개월</text>
  <rect x="790" y="238" width="250" height="118" rx="20" fill="#0F172A" stroke="#334155"/>
  <text x="820" y="282" fill="#94A3B8" font-family="Pretendard, Apple SD Gothic Neo, sans-serif" font-size="20">기간 환산</text>
  <text x="820" y="330" fill="#60A5FA" font-family="Pretendard, Apple SD Gothic Neo, sans-serif" font-size="42" font-weight="800">1년 4개월</text>
  <rect x="510" y="384" width="250" height="118" rx="20" fill="#0F172A" stroke="#334155"/>
  <text x="540" y="428" fill="#94A3B8" font-family="Pretendard, Apple SD Gothic Neo, sans-serif" font-size="20">총 납입액</text>
  <text x="540" y="476" fill="#F59E0B" font-family="Pretendard, Apple SD Gothic Neo, sans-serif" font-size="38" font-weight="800">8,000,000원</text>
  <rect x="790" y="384" width="250" height="118" rx="20" fill="#0F172A" stroke="#334155"/>
  <text x="820" y="428" fill="#94A3B8" font-family="Pretendard, Apple SD Gothic Neo, sans-serif" font-size="20">예상 이자</text>
  <text x="820" y="476" fill="#F472B6" font-family="Pretendard, Apple SD Gothic Neo, sans-serif" font-size="38" font-weight="800">약 253,661원</text>
</svg>
