<svg width="1200" height="630" viewBox="0 0 1200 630" fill="none" xmlns="http://www.w3.org/2000/svg">
  <rect width="1200" height="630" rx="36" fill="#0F172A"/>
  <rect x="56" y="56" width="1088" height="518" rx="28" fill="#111827" stroke="#334155" stroke-width="2"/>
  <rect x="92" y="96" width="420" height="84" rx="20" fill="#1E293B"/>
  <text x="120" y="148" fill="#F8FAFC" font-family="Pretendard, Apple SD Gothic Neo, sans-serif" font-size="42" font-weight="700">학점 계산기</text>
  <text x="120" y="208" fill="#94A3B8" font-family="Pretendard, Apple SD Gothic Neo, sans-serif" font-size="26">4.5 · 4.3 · 4.0 GPA 빠른 계산</text>

  <rect x="92" y="262" width="1016" height="238" rx="24" fill="#0B1220" stroke="#1E293B" stroke-width="2"/>
  <rect x="122" y="292" width="440" height="40" rx="12" fill="#1D4ED8" fill-opacity="0.18"/>
  <rect x="590" y="292" width="130" height="40" rx="12" fill="#1D4ED8" fill-opacity="0.18"/>
  <rect x="752" y="292" width="180" height="40" rx="12" fill="#1D4ED8" fill-opacity="0.18"/>
  <text x="142" y="318" fill="#BFDBFE" font-family="Pretendard, Apple SD Gothic Neo, sans-serif" font-size="22" font-weight="700">과목</text>
  <text x="625" y="318" fill="#BFDBFE" font-family="Pretendard, Apple SD Gothic Neo, sans-serif" font-size="22" font-weight="700">학점</text>
  <text x="807" y="318" fill="#BFDBFE" font-family="Pretendard, Apple SD Gothic Neo, sans-serif" font-size="22" font-weight="700">등급</text>

  <g font-family="Pretendard, Apple SD Gothic Neo, sans-serif" font-size="24" fill="#E2E8F0">
    <rect x="122" y="352" width="440" height="42" rx="12" fill="#111827" stroke="#334155"/>
    <rect x="590" y="352" width="130" height="42" rx="12" fill="#111827" stroke="#334155"/>
    <rect x="752" y="352" width="180" height="42" rx="12" fill="#111827" stroke="#334155"/>
    <text x="146" y="379">전공필수</text>
    <text x="646" y="379">3</text>
    <text x="820" y="379">A+</text>

    <rect x="122" y="410" width="440" height="42" rx="12" fill="#111827" stroke="#334155"/>
    <rect x="590" y="410" width="130" height="42" rx="12" fill="#111827" stroke="#334155"/>
    <rect x="752" y="410" width="180" height="42" rx="12" fill="#111827" stroke="#334155"/>
    <text x="146" y="437">교양영어</text>
    <text x="646" y="437">2</text>
    <text x="820" y="437">B+</text>
  </g>

  <rect x="828" y="110" width="246" height="118" rx="24" fill="#2563EB"/>
  <text x="858" y="156" fill="#DBEAFE" font-family="Pretendard, Apple SD Gothic Neo, sans-serif" font-size="24" font-weight="600">예상 GPA</text>
  <text x="856" y="205" fill="#FFFFFF" font-family="Pretendard, Apple SD Gothic Neo, sans-serif" font-size="54" font-weight="800">4.10</text>

  <text x="92" y="552" fill="#64748B" font-family="Pretendard, Apple SD Gothic Neo, sans-serif" font-size="22">과목별 학점과 등급을 넣으면 가중 평균 GPA를 빠르게 계산합니다.</text>
</svg>
