<svg xmlns="http://www.w3.org/2000/svg" width="1200" height="630" viewBox="0 0 1200 630" role="img" aria-label="장보기 예산 점검">
  <defs><linearGradient id="g" x1="0" y1="0" x2="1" y2="1"><stop offset="0" stop-color="#22c55e"/><stop offset="1" stop-color="#0f766e"/></linearGradient></defs>
  <rect width="1200" height="630" rx="48" fill="url(#g)"/>
  <circle cx="990" cy="120" r="150" fill="rgba(255,255,255,.16)"/>
  <circle cx="150" cy="520" r="120" fill="rgba(255,255,255,.12)"/>
  <rect x="110" y="120" width="430" height="390" rx="34" fill="rgba(255,255,255,.92)"/>
  <rect x="160" y="180" width="240" height="28" rx="14" fill="#16a34a"/>
  <rect x="160" y="245" width="300" height="22" rx="11" fill="#bbf7d0"/>
  <rect x="160" y="305" width="250" height="22" rx="11" fill="#bbf7d0"/>
  <rect x="160" y="365" width="320" height="22" rx="11" fill="#bbf7d0"/>
  <path d="M772 188c52 0 94 42 94 94s-42 94-94 94-94-42-94-94 42-94 94-94z" fill="rgba(255,255,255,.9)"/>
  <path d="M738 280l25 26 48-58" fill="none" stroke="#16a34a" stroke-width="18" stroke-linecap="round" stroke-linejoin="round"/>
  <text x="610" y="455" font-family="Arial, sans-serif" font-size="58" font-weight="800" fill="#fff">장보기 예산 점검</text>
  <text x="614" y="515" font-family="Arial, sans-serif" font-size="30" fill="rgba(255,255,255,.88)">필수·선택 품목과 초과 금액 확인</text>
</svg>