<svg width="1200" height="630" viewBox="0 0 1200 630" fill="none" xmlns="http://www.w3.org/2000/svg">
  <rect width="1200" height="630" rx="36" fill="#0F172A"/>
  <rect x="72" y="72" width="1056" height="486" rx="28" fill="#111827" stroke="#334155" stroke-width="4"/>
  <rect x="118" y="128" width="470" height="336" rx="24" fill="#1E293B"/>
  <rect x="156" y="170" width="394" height="30" rx="12" fill="#334155"/>
  <rect x="156" y="224" width="280" height="70" rx="20" fill="#2563EB"/>
  <text x="296" y="268" text-anchor="middle" font-family="Pretendard, Apple SD Gothic Neo, sans-serif" font-size="28" font-weight="700" fill="white">핵심 답변</text>
  <rect x="156" y="318" width="220" height="54" rx="18" fill="#0F766E"/>
  <text x="266" y="352" text-anchor="middle" font-family="Pretendard, Apple SD Gothic Neo, sans-serif" font-size="24" font-weight="700" fill="white">성과 중심</text>
  <rect x="156" y="392" width="250" height="20" rx="10" fill="#475569"/>
  <rect x="156" y="424" width="190" height="20" rx="10" fill="#475569"/>
  <rect x="664" y="136" width="410" height="80" rx="24" fill="#172554" stroke="#60A5FA" stroke-width="4"/>
  <text x="869" y="185" text-anchor="middle" font-family="Pretendard, Apple SD Gothic Neo, sans-serif" font-size="30" font-weight="700" fill="white">왜 그 선택을 했나요?</text>
  <rect x="664" y="240" width="410" height="80" rx="24" fill="#1D4ED8"/>
  <text x="869" y="289" text-anchor="middle" font-family="Pretendard, Apple SD Gothic Neo, sans-serif" font-size="30" font-weight="700" fill="white">수치로 설명해보세요</text>
  <rect x="664" y="344" width="410" height="80" rx="24" fill="#0F766E"/>
  <text x="869" y="393" text-anchor="middle" font-family="Pretendard, Apple SD Gothic Neo, sans-serif" font-size="30" font-weight="700" fill="white">갈등은 어떻게 풀었나요?</text>
  <path d="M572 260H636" stroke="#94A3B8" stroke-width="12" stroke-linecap="round"/>
  <path d="M620 236L648 260L620 284" stroke="#94A3B8" stroke-width="12" stroke-linecap="round" stroke-linejoin="round"/>
  <text x="120" y="528" font-family="Pretendard, Apple SD Gothic Neo, sans-serif" font-size="56" font-weight="800" fill="white">면접 꼬리질문 생성기</text>
  <text x="120" y="570" font-family="Pretendard, Apple SD Gothic Neo, sans-serif" font-size="28" font-weight="500" fill="#CBD5E1">답변 뒤에 나올 후속 질문과 답변 포인트를 미리 연습</text>
</svg>
