<svg xmlns="http://www.w3.org/2000/svg" width="1200" height="630" viewBox="0 0 1200 630" role="img" aria-labelledby="title desc">
  <title id="title">회의 메모 액션아이템 정리기</title>
  <desc id="desc">회의 메모에서 담당자와 기한을 정리하는 웹툴 썸네일</desc>
  <defs><linearGradient id="bg" x1="0" y1="0" x2="1" y2="1"><stop offset="0%" stop-color="#111827"/><stop offset="100%" stop-color="#0d9488"/></linearGradient></defs>
  <rect width="1200" height="630" rx="36" fill="url(#bg)"/>
  <rect x="86" y="78" width="430" height="474" rx="30" fill="#ecfeff" opacity="0.96"/>
  <rect x="130" y="130" width="260" height="30" rx="15" fill="#99f6e4"/>
  <rect x="130" y="196" width="320" height="24" rx="12" fill="#134e4a" opacity="0.18"/>
  <rect x="130" y="242" width="280" height="24" rx="12" fill="#134e4a" opacity="0.18"/>
  <rect x="130" y="312" width="330" height="64" rx="22" fill="#ccfbf1"/>
  <rect x="154" y="333" width="30" height="30" rx="8" fill="#0d9488"/>
  <path d="M161 348l7 7 14-18" fill="none" stroke="#fff" stroke-width="6" stroke-linecap="round" stroke-linejoin="round"/>
  <rect x="130" y="402" width="330" height="64" rx="22" fill="#ccfbf1"/>
  <circle cx="474" cy="433" r="24" fill="#14b8a6"/>
  <path d="M462 433h24M474 421v24" stroke="#fff" stroke-width="7" stroke-linecap="round"/>
  <text x="590" y="206" fill="#ccfbf1" font-size="32" font-family="Pretendard, Apple SD Gothic Neo, sans-serif">TOOLOG WEB TOOL</text>
  <text x="590" y="306" fill="#ffffff" font-size="70" font-weight="700" font-family="Pretendard, Apple SD Gothic Neo, sans-serif">회의 메모
액션아이템</text>
  <text x="590" y="380" fill="#99f6e4" font-size="34" font-family="Pretendard, Apple SD Gothic Neo, sans-serif">담당자 · 기한 · 결정사항 추출</text>
  <text x="590" y="452" fill="#e5e7eb" font-size="28" font-family="Pretendard, Apple SD Gothic Neo, sans-serif">회의 후속 작업 체크리스트로 바로 정리</text>
</svg>
