<svg width="1200" height="630" viewBox="0 0 1200 630" fill="none" xmlns="http://www.w3.org/2000/svg">
  <rect width="1200" height="630" rx="36" fill="#0F172A"/>
  <rect x="64" y="64" width="1072" height="502" rx="28" fill="#111827" stroke="#334155" stroke-width="2"/>
  <rect x="108" y="120" width="420" height="34" rx="12" fill="#22C55E" fill-opacity="0.16"/>
  <rect x="108" y="184" width="432" height="18" rx="9" fill="#CBD5E1" fill-opacity="0.9"/>
  <rect x="108" y="222" width="360" height="18" rx="9" fill="#94A3B8" fill-opacity="0.85"/>
  <rect x="108" y="260" width="404" height="18" rx="9" fill="#94A3B8" fill-opacity="0.55"/>
  <rect x="108" y="316" width="18" height="18" rx="4" fill="#22C55E"/>
  <path d="M113 325L119 331L131 319" stroke="white" stroke-width="3" stroke-linecap="round" stroke-linejoin="round"/>
  <rect x="144" y="316" width="332" height="18" rx="9" fill="#E2E8F0"/>
  <rect x="108" y="358" width="18" height="18" rx="4" fill="#38BDF8"/>
  <path d="M113 367L119 373L131 361" stroke="white" stroke-width="3" stroke-linecap="round" stroke-linejoin="round"/>
  <rect x="144" y="358" width="382" height="18" rx="9" fill="#E2E8F0" fill-opacity="0.95"/>
  <rect x="108" y="400" width="18" height="18" rx="4" fill="#F59E0B"/>
  <rect x="144" y="400" width="296" height="18" rx="9" fill="#E2E8F0" fill-opacity="0.9"/>
  <rect x="660" y="126" width="430" height="66" rx="20" fill="#1E293B"/>
  <text x="690" y="167" fill="#F8FAFC" font-family="Arial, Apple SD Gothic Neo, sans-serif" font-size="34" font-weight="700">회의 액션 아이템 정리기</text>
  <text x="690" y="230" fill="#94A3B8" font-family="Arial, Apple SD Gothic Neo, sans-serif" font-size="22" font-weight="600">meeting notes → action items</text>
  <rect x="660" y="286" width="408" height="188" rx="24" fill="#0B1220" stroke="#334155" stroke-width="2"/>
  <text x="696" y="338" fill="#22C55E" font-family="Arial, Apple SD Gothic Neo, sans-serif" font-size="26" font-weight="700">ACTION ITEMS</text>
  <text x="696" y="386" fill="#E2E8F0" font-family="Arial, Apple SD Gothic Neo, sans-serif" font-size="22">• 실행 항목 정리</text>
  <text x="696" y="424" fill="#E2E8F0" font-family="Arial, Apple SD Gothic Neo, sans-serif" font-size="22">• 확인 필요 항목 분리</text>
  <text x="696" y="462" fill="#E2E8F0" font-family="Arial, Apple SD Gothic Neo, sans-serif" font-size="22">• 바로 복사 가능한 포맷</text>
</svg>
