<svg width="1200" height="630" viewBox="0 0 1200 630" fill="none" xmlns="http://www.w3.org/2000/svg">
  <defs>
    <linearGradient id="bg" x1="0" y1="0" x2="1200" y2="630" gradientUnits="userSpaceOnUse">
      <stop stop-color="#0F172A"/>
      <stop offset="1" stop-color="#1E293B"/>
    </linearGradient>
    <linearGradient id="card" x1="160" y1="120" x2="1040" y2="510" gradientUnits="userSpaceOnUse">
      <stop stop-color="#111827"/>
      <stop offset="1" stop-color="#0B1220"/>
    </linearGradient>
  </defs>
  <rect width="1200" height="630" fill="url(#bg)"/>
  <rect x="160" y="120" width="880" height="390" rx="28" fill="url(#card)" stroke="#334155" stroke-width="2"/>
  <text x="210" y="210" fill="#F8FAFC" font-size="52" font-family="Pretendard, Arial, sans-serif" font-weight="700">비밀번호 생성기</text>
  <text x="210" y="258" fill="#94A3B8" font-size="28" font-family="Pretendard, Arial, sans-serif">강력한 랜덤 패스워드 · 엔트로피 표시</text>
  <rect x="210" y="300" width="580" height="68" rx="14" fill="#020617" stroke="#1E293B"/>
  <text x="236" y="345" fill="#22C55E" font-size="30" font-family="monospace">K7!mQ2@vL9#tR4$z</text>
  <rect x="210" y="390" width="230" height="56" rx="12" fill="#2563EB"/>
  <text x="257" y="426" fill="#EFF6FF" font-size="24" font-family="Pretendard, Arial, sans-serif" font-weight="700">생성</text>
  <circle cx="922" cy="326" r="68" fill="#0B1220" stroke="#334155" stroke-width="2"/>
  <path d="M922 292C906 292 893 305 893 321V335H886C880 335 875 340 875 346V386C875 392 880 397 886 397H958C964 397 969 392 969 386V346C969 340 964 335 958 335H951V321C951 305 938 292 922 292ZM934 335H910V321C910 314 915 309 922 309C929 309 934 314 934 321V335Z" fill="#22D3EE"/>
</svg>
