<svg width="1200" height="630" viewBox="0 0 1200 630" fill="none" xmlns="http://www.w3.org/2000/svg">
  <rect width="1200" height="630" rx="36" fill="#0F172A"/>
  <rect x="64" y="64" width="1072" height="502" rx="28" fill="#111827" stroke="#334155" stroke-width="2"/>
  <rect x="112" y="118" width="488" height="28" rx="14" fill="#22C55E" fill-opacity="0.18"/>
  <rect x="112" y="166" width="760" height="20" rx="10" fill="#E5E7EB" fill-opacity="0.95"/>
  <rect x="112" y="204" width="820" height="20" rx="10" fill="#CBD5E1" fill-opacity="0.92"/>
  <rect x="112" y="242" width="700" height="20" rx="10" fill="#CBD5E1" fill-opacity="0.92"/>
  <rect x="112" y="280" width="856" height="20" rx="10" fill="#F59E0B" fill-opacity="0.95"/>
  <rect x="112" y="318" width="620" height="20" rx="10" fill="#CBD5E1" fill-opacity="0.92"/>
  <rect x="112" y="380" width="284" height="118" rx="20" fill="#1E293B"/>
  <rect x="430" y="380" width="284" height="118" rx="20" fill="#1E293B"/>
  <rect x="748" y="380" width="284" height="118" rx="20" fill="#1E293B"/>
  <text x="142" y="428" fill="#93C5FD" font-family="Arial, sans-serif" font-size="24" font-weight="700">긴 문장</text>
  <text x="142" y="470" fill="#F8FAFC" font-family="Arial, sans-serif" font-size="42" font-weight="800">3개</text>
  <text x="460" y="428" fill="#C4B5FD" font-family="Arial, sans-serif" font-size="24" font-weight="700">긴 문단</text>
  <text x="460" y="470" fill="#F8FAFC" font-family="Arial, sans-serif" font-size="42" font-weight="800">1개</text>
  <text x="778" y="428" fill="#86EFAC" font-family="Arial, sans-serif" font-size="24" font-weight="700">가독성</text>
  <text x="778" y="470" fill="#F8FAFC" font-family="Arial, sans-serif" font-size="42" font-weight="800">보통</text>
  <text x="112" y="552" fill="#E2E8F0" font-family="Arial, sans-serif" font-size="54" font-weight="800">문장 가독성 점검기</text>
</svg>
