<svg xmlns="http://www.w3.org/2000/svg" width="1200" height="630" viewBox="0 0 1200 630" role="img" aria-labelledby="title desc">
  <title id="title">분리배출 퀴즈 연습기</title>
  <desc id="desc">헷갈리는 생활 쓰레기 분리 기준을 익히는 웹툴 썸네일</desc>
  <defs><linearGradient id="bg" x1="0" y1="0" x2="1" y2="1"><stop offset="0%" stop-color="#064e3b"/><stop offset="100%" stop-color="#84cc16"/></linearGradient></defs>
  <rect width="1200" height="630" rx="36" fill="url(#bg)"/>
  <circle cx="230" cy="212" r="106" fill="#dcfce7" opacity="0.96"/>
  <path d="M190 208c26-58 88-74 136-36M326 172l-4-52 46 26M318 280c-62 16-111-23-126-75M192 205l-42 31 1-54M238 324c-7-64 39-110 93-122M331 202l49 20-41 31" fill="none" stroke="#15803d" stroke-width="18" stroke-linecap="round" stroke-linejoin="round"/>
  <rect x="84" y="378" width="360" height="88" rx="28" fill="#ecfccb" opacity="0.96"/>
  <text x="126" y="434" fill="#365314" font-size="34" font-weight="700" font-family="Pretendard, Apple SD Gothic Neo, sans-serif">QUIZ · CHECK · LEARN</text>
  <text x="540" y="198" fill="#d9f99d" font-size="32" font-family="Pretendard, Apple SD Gothic Neo, sans-serif">TOOLOG WEB TOOL</text>
  <text x="540" y="308" fill="#ffffff" font-size="72" font-weight="800" font-family="Pretendard, Apple SD Gothic Neo, sans-serif">분리배출
퀴즈 연습기</text>
  <text x="540" y="384" fill="#ecfccb" font-size="34" font-family="Pretendard, Apple SD Gothic Neo, sans-serif">종이 · 플라스틱 · 음식물 · 일반쓰레기</text>
  <text x="540" y="454" fill="#f7fee7" font-size="28" font-family="Pretendard, Apple SD Gothic Neo, sans-serif">짧은 퀴즈와 해설로 재활용 기준 익히기</text>
</svg>
