<svg xmlns="http://www.w3.org/2000/svg" width="1200" height="630" viewBox="0 0 1200 630">
  <defs><linearGradient id="g" x1="0" y1="0" x2="1" y2="1"><stop offset="0" stop-color="#ede9fe"/><stop offset="1" stop-color="#0f766e"/></linearGradient></defs>
  <rect width="1200" height="630" rx="42" fill="url(#g)"/>
  <circle cx="1010" cy="115" r="82" fill="#ccfbf1" opacity=".45"/>
  <rect x="315" y="230" width="570" height="210" rx="28" fill="#0f172a" opacity=".92"/>
  <g fill="#f8fafc" font-family="Arial, sans-serif" font-size="34" font-weight="700">
    <rect x="360" y="270" width="110" height="64" rx="14" fill="#14b8a6"/><text x="388" y="313">Ctrl</text>
    <rect x="495" y="270" width="92" height="64" rx="14" fill="#334155"/><text x="526" y="313">K</text>
    <rect x="612" y="270" width="92" height="64" rx="14" fill="#334155"/><text x="642" y="313">T</text>
    <rect x="729" y="270" width="110" height="64" rx="14" fill="#14b8a6"/><text x="757" y="313">Cmd</text>
  </g>
  <path d="M395 385h410" stroke="#99f6e4" stroke-width="20" stroke-linecap="round" opacity=".9"/>
  <path d="M395 385h235" stroke="#fef3c7" stroke-width="20" stroke-linecap="round" opacity=".95"/>
  <text x="90" y="120" font-family="Arial, sans-serif" font-size="54" font-weight="700" fill="#0f172a">단축키 기억 퀴즈</text>
  <text x="92" y="185" font-family="Arial, sans-serif" font-size="30" fill="#134e4a">브라우저 · 문서 · 시스템 키 조합 복습</text>
  <rect x="84" y="465" width="1032" height="78" rx="24" fill="#ffffff" opacity=".84"/>
  <text x="120" y="516" font-family="Arial, sans-serif" font-size="34" font-weight="700" fill="#0f766e">Toolog</text>
</svg>
